<svg xmlns="http://www.w3.org/2000/svg" width="323.982" height="63.667"><path fill="#8BAC54" d="M5.299 23.328c-6.668 8.418-6.923 19.866-1.44 28.435 4.929-12.658 11.139-26.899 18.788-39.614-7.182 3.035-13.884 6.806-17.348 11.179zm47.409-17.625c-.078-.66-.421-1.219-.917-1.59-.473-.396-1.097-.604-1.759-.526 0 0-1.967.421-5.097 1.226-14.948 14.354-27.214 33.586-36.72 52.057.354.308.714.615 1.087.906 10.625 8.407 26.048 6.611 34.452-4.001 9.683-12.242 8.954-48.072 8.954-48.072z"/><path fill="#B1C982" d="M11.039 59.032c11.235-18.053 25.227-35.646 41.614-46.856.105-3.945.055-6.473.055-6.473-.078-.66-.421-1.219-.917-1.59-.473-.396-1.097-.604-1.759-.526 0 0-1.967.421-5.097 1.226-14.948 14.354-27.214 33.586-36.72 52.057.354.308.714.615 1.087.906.564.45 1.147.867 1.737 1.256z"/><g fill="#fff"><path d="M103.866 29.777c-.564 2.818-1.764 5.248-3.588 7.287-1.832 2.04-4.17 3.708-7.022 5.014-2.851 1.304-6.109 2.265-9.767 2.9-3.663.634-7.637.953-11.928.953h-2.43c.423 2.675 1.564 4.804 3.43 6.383 1.865 1.588 4.59 2.377 8.183 2.377 2.6 0 5.228-.422 7.865-1.263 2.64-.846 5.053-1.972 7.235-3.38l-1.688 9.713c-2.255 1.198-4.614 2.056-7.077 2.584-2.465.528-4.819.795-7.074.795-3.312 0-6.246-.474-8.817-1.429-2.569-.945-4.745-2.283-6.543-4.008-1.795-1.726-3.17-3.788-4.12-6.176-.952-2.396-1.425-5.036-1.425-7.924 0-.843.053-1.687.161-2.531.104-.839.221-1.719.364-2.639.635-3.38 1.85-6.582 3.643-9.61 1.799-3.023 3.993-5.66 6.604-7.914 2.601-2.252 5.522-4.05 8.761-5.39 3.236-1.338 6.61-2.008 10.137-2.008 4.568 0 8.287 1.145 11.136 3.437 2.851 2.283 4.274 5.436 4.274 9.45.001 1.127-.104 2.255-.314 3.379zm-11.084-6.283c-1.199-1.021-2.818-1.531-4.858-1.531-1.898 0-3.802.388-5.699 1.16-1.901.776-3.694 1.887-5.385 3.327-1.687 1.446-3.169 3.153-4.432 5.122-1.27 1.969-2.186 4.157-2.749 6.547h2.115c6.757 0 12.084-.813 15.991-2.429 3.905-1.623 6.139-3.804 6.702-6.55.074-.351.105-.843.105-1.474 0-1.759-.595-3.151-1.79-4.172zM153.28 30.201l-5.594 32.304h-9.612l5.809-32.939c.07-.354.123-.652.157-.898.039-.244.055-.54.055-.896 0-1.971-.58-3.521-1.742-4.648-1.159-1.126-2.73-1.688-4.698-1.688-3.52 0-6.547.879-9.079 2.639-2.534 1.764-4.684 3.997-6.442 6.706-1.759 2.71-3.167 5.661-4.225 8.867-1.056 3.208-1.831 6.253-2.325 9.138l-2.423 13.721h-9.61l8.442-47.827h9.613l-1.902 10.131.214.11c1.967-3.73 4.576-6.562 7.81-8.496 3.241-1.937 6.971-2.91 11.192-2.91 2.043 0 3.96.299 5.756.898 1.796.602 3.342 1.477 4.644 2.641 1.303 1.165 2.34 2.589 3.122 4.273.764 1.69 1.158 3.594 1.158 5.708 0 1.051-.106 2.106-.32 3.166zM171.974 63.357h-3.909l-11.405-48.68h9.291l4.962 21.327c.35 1.55.689 3.293 1.008 5.223.312 1.946.617 3.822.894 5.654h.213c.911-1.832 1.861-3.708 2.849-5.654.986-1.93 1.936-3.673 2.855-5.223l12.457-21.327h9.394l-28.609 48.68zM237.217 62.505h-9.603l1.688-9.29-.315-.103c-2.047 3.803-4.669 6.51-7.865 8.126-3.207 1.62-6.391 2.429-9.558 2.429-3.026 0-5.647-.549-7.862-1.631-2.223-1.094-4.055-2.537-5.492-4.332-1.447-1.794-2.519-3.836-3.221-6.124-.707-2.283-1.056-4.63-1.056-7.021 0-.774.033-1.547.104-2.322.066-.774.17-1.55.319-2.324.841-4.361 2.354-8.186 4.535-11.463 2.185-3.266 4.811-6.011 7.866-8.23 3.063-2.218 6.386-3.891 9.979-5.014 3.586-1.128 7.248-1.693 10.982-1.693 3.23 0 6.386.34 9.445 1.003 3.068.675 5.719 1.639 7.979 2.908l-7.925 45.081zm-6.12-40.861c-1.479-.209-2.922-.318-4.331-.318-2.745 0-5.386.51-7.916 1.535-2.535 1.023-4.824 2.416-6.863 4.173-2.044 1.757-3.765 3.835-5.174 6.23-1.412 2.393-2.358 4.92-2.854 7.602-.209 1.265-.311 2.496-.311 3.694 0 1.41.171 2.777.522 4.118.353 1.335.931 2.513 1.745 3.534.805 1.023 1.863 1.83 3.166 2.429 1.301.595 2.904.898 4.803.898 1.758 0 3.605-.506 5.544-1.534 1.938-1.019 3.763-2.477 5.493-4.382 1.721-1.896 3.267-4.221 4.64-6.967 1.372-2.743 2.377-5.84 3.015-9.286l2.004-10.881c-.842-.348-2.004-.634-3.483-.845zM275.502 22.385h-15.211l-4.428 25.447c-.073.351-.126.738-.158 1.16-.038.424-.057.813-.057 1.164 0 1.9.531 3.216 1.584 3.956 1.057.738 2.466 1.109 4.224 1.109.842 0 1.777-.065 2.797-.207 1.023-.144 1.917-.395 2.696-.745l-1.377 7.714c-.77.354-1.809.613-3.11.788-1.301.171-2.378.265-3.224.265-3.733 0-6.843-1.053-9.342-3.168-2.5-2.114-3.748-5.106-3.748-8.974v-1.479c0-.495.07-.989.207-1.481l4.435-25.55 1.376-7.707 1.688-9.715 10.347-4.962-2.533 14.678h16.896l-3.062 7.707zM321.497 45.72c-1.649 3.521-3.854 6.613-6.597 9.295-2.742 2.673-5.916 4.783-9.503 6.331-3.594 1.547-7.358 2.321-11.296 2.321-3.102 0-5.949-.494-8.553-1.477-2.611-.986-4.858-2.393-6.762-4.227-1.896-1.83-3.397-4.024-4.486-6.596-1.087-2.567-1.638-5.437-1.638-8.606 0-4.011.832-7.777 2.486-11.299 1.646-3.519 3.851-6.615 6.597-9.293 2.745-2.671 5.909-4.785 9.5-6.33 3.594-1.548 7.357-2.327 11.299-2.327 3.102 0 5.949.497 8.549 1.477 2.607.992 4.859 2.396 6.757 4.229 1.903 1.83 3.402 4.027 4.492 6.603 1.085 2.565 1.64 5.435 1.64 8.603 0 4.011-.831 7.777-2.485 11.296zm-10.503-20.329c-2.185-2.286-5.211-3.428-9.082-3.428-2.675 0-5.207.579-7.602 1.741-2.396 1.159-4.467 2.714-6.229 4.646-1.763 1.935-3.149 4.156-4.173 6.651s-1.53 5.055-1.53 7.654c0 3.802 1.094 6.846 3.277 9.132 2.181 2.292 5.202 3.434 9.075 3.434 2.674 0 5.21-.581 7.603-1.743 2.393-1.164 4.469-2.702 6.23-4.646 1.758-1.933 3.149-4.149 4.17-6.649 1.02-2.5 1.534-5.052 1.534-7.654.002-3.804-1.097-6.846-3.273-9.138z"/></g></svg>