<?xml version="1.0" encoding="utf-8"?>
<!-- Generator: Adobe Illustrator 16.2.1, SVG Export Plug-In . SVG Version: 6.00 Build 0)  -->
<!DOCTYPE svg PUBLIC "-//W3C//DTD SVG 1.1//EN" "http://www.w3.org/Graphics/SVG/1.1/DTD/svg11.dtd">
<svg version="1.1" id="Layer_1" xmlns="http://www.w3.org/2000/svg" xmlns:xlink="http://www.w3.org/1999/xlink" x="0px" y="0px"
	 width="305.876px" height="65.876px" viewBox="0 0 305.876 65.876" enable-background="new 0 0 305.876 65.876"
	 xml:space="preserve">
<g>
	<path fill="#FFFFFF" d="M90.775,36.097h-7.052V31.93h7.052v-7.372h4.327v7.372h7.052v4.167h-7.052v7.372h-4.327V36.097z"/>
</g>
<g>
	<path fill="#FFFFFF" d="M210.775,36.097h-7.052V31.93h7.052v-7.372h4.327v7.372h7.052v4.167h-7.052v7.372h-4.327V36.097z"/>
</g>
<g>
	<circle fill="#020202" cx="32.938" cy="32.938" r="32.938"/>
	<path fill="#EDECE6" d="M51.468,31.593l-0.005-0.082c-0.009-0.067-0.018-0.129-0.027-0.178c-0.02-0.103-0.041-0.186-0.062-0.262
		c-0.043-0.154-0.086-0.287-0.132-0.416c-0.091-0.255-0.185-0.49-0.28-0.724c-0.191-0.465-0.391-0.911-0.6-1.354
		c-0.412-0.885-0.846-1.749-1.299-2.606c-0.447-0.859-0.91-1.711-1.406-2.556c-0.249-0.423-0.508-0.843-0.783-1.266
		c-0.281-0.425-0.553-0.84-0.961-1.3c-0.107-0.116-0.22-0.236-0.395-0.378c-0.091-0.07-0.191-0.148-0.367-0.236
		c-0.084-0.04-0.203-0.092-0.355-0.127c-0.042-0.009-0.084-0.017-0.127-0.021c-0.049-0.006-0.102-0.011-0.154-0.012l-0.069-0.002
		l-0.716-0.015l-1.426-0.027l-2.857-0.058l-5.709-0.125c-3.809-0.082-7.616-0.137-11.423-0.138l-0.178,0.004H22.09l-0.104,0.005
		l-0.043,0.001c-0.278,0.026-0.373,0.067-0.49,0.103c-0.43,0.16-0.591,0.307-0.764,0.433c-0.317,0.254-0.506,0.478-0.698,0.693
		c-0.365,0.434-0.664,0.846-0.949,1.265c-0.56,0.839-1.062,1.673-1.563,2.505c-0.49,0.837-0.996,1.657-1.474,2.492l-1.435,2.509
		c-0.343,0.601-0.136,1.364,0.463,1.709c0.6,0.344,1.367,0.138,1.712-0.463l0.002-0.006c0.464-0.808,0.963-1.617,1.467-2.41
		c0.51-0.791,1.007-1.589,1.552-2.351c0.534-0.765,1.092-1.513,1.669-2.203c0.139-0.166,0.278-0.333,0.416-0.49l1.636,7.344
		l0.051,0.233l-4.071,0.183c-0.258,0.011-0.47,0.217-0.478,0.478c-0.009,0.274,0.205,0.505,0.479,0.513l4.442,0.182
		c0.088,0.216,0.188,0.431,0.293,0.641l1.042,2.139c0.689,1.429,1.409,2.844,2.116,4.265c1.118,2.208,2.266,4.403,3.444,6.585
		c-0.192-0.177-0.384-0.348-0.575-0.529c-1.344-1.286-2.665-2.642-3.963-4.016c-1.291-1.382-2.57-2.782-3.84-4.189
		c-1.272-1.405-2.531-2.833-3.762-4.266l-0.01-0.01c-0.021-0.023-0.042-0.047-0.063-0.068c-0.644-0.664-1.702-0.68-2.364-0.037
		c-0.663,0.644-0.681,1.702-0.037,2.364c2.668,2.751,5.31,5.499,8.042,8.189c1.365,1.348,2.728,2.694,4.17,4.002
		c0.362,0.327,0.729,0.652,1.112,0.975c0.389,0.321,0.771,0.637,1.256,0.962c0.126,0.081,0.256,0.162,0.424,0.251
		c0.084,0.045,0.18,0.091,0.303,0.138c0.135,0.045,0.275,0.109,0.602,0.127c0.033,0.002,0.226-0.006,0.15-0.004l0.022-0.002
		l0.105-0.012c0.042-0.005,0.083-0.013,0.125-0.022c0.115-0.026,0.181-0.049,0.244-0.072c0.128-0.047,0.216-0.089,0.302-0.13
		c0.162-0.083,0.293-0.161,0.415-0.238c0.479-0.307,0.869-0.607,1.264-0.916c1.546-1.229,2.957-2.517,4.386-3.803
		c1.418-1.29,2.812-2.601,4.191-3.928c1.377-1.33,2.747-2.664,4.094-4.032c0.675-0.685,1.343-1.375,2.002-2.088
		c0.329-0.356,0.655-0.72,0.98-1.1c0.162-0.19,0.324-0.386,0.488-0.603c0.084-0.108,0.166-0.22,0.255-0.353
		c0.044-0.068,0.091-0.144,0.143-0.237c0.025-0.047,0.054-0.104,0.085-0.174c0.015-0.032,0.033-0.088,0.049-0.132
		c0.017-0.051,0.038-0.127,0.053-0.204c0.01-0.058,0.014-0.116,0.017-0.174c0.003-0.077,0-0.102,0.002-0.097L51.468,31.593z
		 M44.03,22.41c-0.014-0.009-0.017-0.014-0.015-0.012C44.016,22.399,44.024,22.407,44.03,22.41z M42.303,22.575l1.426-0.029
		l0.432-0.009c0.234,0.242,0.5,0.592,0.746,0.941c0.258,0.366,0.504,0.753,0.748,1.146c0.486,0.786,0.952,1.597,1.401,2.416
		c0.44,0.824,0.866,1.66,1.263,2.498c0.096,0.201,0.182,0.402,0.273,0.604l-7.018,0.264l1.534-5.084
		c0.059-0.191-0.034-0.401-0.22-0.486c-0.203-0.097-0.447-0.006-0.542,0.198l-1.956,4.229l-6.509-6.509l5.563-0.122L42.303,22.575z
		 M25.846,27.867l-2.352-4.981c2.64-0.007,5.281-0.04,7.922-0.09c-0.412,0.401-0.822,0.804-1.241,1.201
		c-0.655,0.606-1.314,1.21-1.98,1.807c-0.665,0.599-1.34,1.186-2.014,1.775L25.846,27.867z M31.405,25.223
		c0.424-0.45,0.852-0.899,1.284-1.343l6.612,6.611l-12.66,0.478C26.62,30.933,30.795,25.879,31.405,25.223z M27.856,34.011
		l-0.641-1.46l11.657,0.402l-6.231,12.576c-0.929-2.398-1.909-4.776-2.904-7.146C29.11,36.926,28.5,35.46,27.856,34.011z
		 M45.774,35.19c-1.333,1.336-2.693,2.655-4.077,3.947c-1.384,1.294-2.78,2.572-4.196,3.825c-0.995,0.878-2.008,1.747-3.031,2.572
		l6.205-12.52l6.975,0.241C47.039,33.907,46.411,34.551,45.774,35.19z"/>
</g>
<g>
	<g>
		<circle fill="#020202" cx="152.938" cy="32.938" r="32.938"/>
	</g>
	<g>
		<path fill="#FFFFFF" d="M152.958,47.151c-0.004,0-0.008,0-0.011,0l-14.203-0.076c-0.73-0.004-1.407-0.382-1.793-1.001
			c-0.386-0.619-0.427-1.393-0.11-2.05l14.203-29.364c0.432-0.892,1.421-1.368,2.389-1.146c0.966,0.221,1.651,1.081,1.651,2.072
			v29.44c0,0.566-0.226,1.108-0.627,1.507C154.058,46.929,153.519,47.151,152.958,47.151z M142.136,42.841l8.696,0.047V24.863
			L142.136,42.841z"/>
	</g>
	<g>
		<path fill="#FFFFFF" d="M167.742,47.152c-0.778,0-1.528-0.429-1.901-1.172l-14.783-29.44c-0.527-1.049-0.104-2.327,0.946-2.854
			c1.048-0.527,2.327-0.104,2.854,0.946l14.783,29.44c0.527,1.049,0.104,2.327-0.946,2.854
			C168.389,47.079,168.063,47.152,167.742,47.152z"/>
	</g>
</g>
<g>
	<circle fill="#020202" cx="272.938" cy="32.938" r="32.938"/>
	<g id="Your_Icon">
		<path fill="#FFFFFF" d="M270.634,32.343c-6.228,0-11.105-2.859-11.105-6.511c0-0.592,0.479-1.071,1.071-1.071
			s1.072,0.479,1.072,1.071c0,2.065,3.682,4.366,8.962,4.366c5.279,0,8.824-2.258,8.824-4.366c0-0.592,0.48-1.071,1.071-1.071
			c0.593,0,1.072,0.479,1.072,1.071C281.602,29.483,276.784,32.343,270.634,32.343z"/>
		<path fill="#FFFFFF" d="M270.553,50.707c-6.764,0-9.165-3.469-9.165-6.439l-1.851-18.328c-0.006-3.199,3.672-5.746,8.938-6.3
			c0.578-0.052,1.115,0.365,1.178,0.955c0.062,0.589-0.365,1.116-0.954,1.179c-4.005,0.419-7.024,2.165-7.024,4.059l1.852,18.327
			c0.006,2.758,2.695,4.404,7.026,4.404c4.332,0,7.021-1.644,7.021-4.288l1.89-18.552c0.06-0.588,0.604-1.006,1.176-0.957
			c0.589,0.061,1.018,0.586,0.958,1.176l-1.885,18.441C279.716,47.243,277.316,50.707,270.553,50.707z"/>
		<path fill="#FFFFFF" d="M279.959,33.813c-0.592,0-1.072-0.479-1.072-1.071c0-0.593,0.48-1.072,1.072-1.072
			c2.513,0,4.328-0.7,4.346-0.707c4.279-1.656,6.411-6.477,4.761-10.748c-1.654-4.27-6.474-6.4-10.744-4.749
			c-2.07,0.799-3.704,2.357-4.602,4.387s-0.95,4.287-0.149,6.355c0.213,0.552-0.061,1.173-0.613,1.387
			c-0.552,0.212-1.174-0.062-1.386-0.614c-1.006-2.603-0.939-5.442,0.188-7.995c1.13-2.553,3.187-4.514,5.789-5.52
			c5.373-2.078,11.434,0.604,13.514,5.975c2.079,5.375-0.604,11.439-5.977,13.519C285.008,32.991,282.905,33.813,279.959,33.813z"/>
		<path fill="#FFFFFF" d="M280.619,16.394c-0.083,0-0.165,0.003-0.256,0.01c-2.739,0.193-1.314,2.805-0.367,4.234
			c0.224,0.336,0.427,0.45,0.602,0.45c0.376,0,0.61-0.531,0.61-0.531C281.963,19.069,282.994,16.394,280.619,16.394L280.619,16.394z
			"/>
		<path fill="#FFFFFF" d="M276.176,20.454c-0.627,0-1.127,0.38-1.275,1.459c-0.199,1.439,0.507,1.88,1.45,1.88
			c0.842,0,1.874-0.351,2.626-0.652c1.181-0.471,0.168-1.197,0.168-1.197C278.338,21.296,277.112,20.454,276.176,20.454
			L276.176,20.454z"/>
		<path fill="#FFFFFF" d="M283.989,23.238c-0.216,0-0.426,0.005-0.618,0.013c-1.272,0.056-0.56,1.078-0.56,1.078
			c0.631,1.014,1.708,2.459,2.722,2.459c0.45,0,0.892-0.289,1.274-1.032C287.919,23.584,285.7,23.238,283.989,23.238L283.989,23.238
			z"/>
		<path fill="#FFFFFF" d="M285.392,18.439c-1.011,0-2.092,1.382-2.749,2.353c-0.715,1.059,0.532,1.09,0.532,1.09
			c0.302,0.024,0.641,0.041,0.99,0.041c1.652,0,3.524-0.395,2.534-2.4C286.316,18.739,285.863,18.439,285.392,18.439L285.392,18.439
			z"/>
	</g>
</g>
</svg>
