<svg xmlns="http://www.w3.org/2000/svg" width="106.15" height="19.694"><path fill="#fff" d="M12.235 5.66c-.044-.591-.172-1.159-.373-1.691-.502-1.333-1.454-2.442-2.671-3.147-.337-.195-.693-.359-1.066-.488-.626-.215-1.298-.334-1.998-.334-3.384 0-6.127 2.743-6.127 6.127s6.127 13.567 6.127 13.567.893-1.484 1.998-3.507c-1.717-3.146-3.944-7.595-4.119-9.796l-.012-.264.02-.466c.197-.987 1.068-1.73 2.113-1.73.134 0 .265.014.392.038.731.134 1.333.636 1.606 1.308.101.25.158.523.158.81 0 .197-.06.461-.159.763-.244.744-.727 1.721-1.158 2.525.585 1.506 1.405 3.216 2.225 4.805.82-1.589 1.639-3.299 2.225-4.805.454-1.168.765-2.213.827-2.984l.036-.304c-.001-.146-.016-.289-.044-.427"/><path fill="#fff" d="M21.984 4.822c.623 0 1.153.091 1.591.272.437.181.793.421 1.067.718.274.298.475.637.6 1.019.125.381.188.777.188 1.186 0 .4-.063.793-.188 1.179s-.326.728-.6 1.025-.63.537-1.067.719c-.438.181-.968.272-1.591.272h-2.302v3.572h-2.191v-9.962h4.493zm-.6 4.688c.251 0 .493-.019.726-.056.233-.037.438-.109.614-.216s.318-.258.425-.454c.107-.195.161-.451.161-.767s-.053-.572-.161-.768c-.107-.196-.249-.347-.425-.454-.177-.107-.381-.179-.614-.216-.232-.037-.474-.056-.726-.056h-1.702v2.987h1.702z"/><path fill="#fff" d="M26.413 4.822h1.981v1.632h-1.981v-1.632zm1.982 9.963h-1.981v-7.214h1.981v7.214z"/><path fill="#fff" d="M31.841 7.571v1.005h.042c.251-.419.577-.723.977-.914.4-.19.81-.286 1.228-.286.53 0 .965.072 1.305.216.339.145.607.344.802.6.196.256.333.567.412.935.079.368.119.775.119 1.221v4.438h-1.981v-4.076c0-.595-.094-1.04-.279-1.333-.187-.293-.517-.439-.991-.439-.54 0-.931.16-1.172.481-.242.321-.363.849-.363 1.583v3.782h-1.981v-7.213h1.882z"/><path fill="#fff" d="M46.814 4.822c.623 0 1.153.091 1.591.272.437.181.793.421 1.067.718.274.298.474.637.6 1.019.126.381.188.777.188 1.186 0 .4-.062.793-.188 1.179s-.325.728-.6 1.025-.631.537-1.067.719c-.438.181-.968.272-1.591.272h-2.303v3.572h-2.19v-9.962h4.493zm-.601 4.688c.252 0 .493-.019.727-.056.231-.037.437-.109.613-.216s.318-.258.426-.454c.106-.195.16-.451.16-.767s-.054-.572-.16-.768c-.107-.196-.249-.347-.426-.454s-.382-.177-.613-.215c-.233-.037-.475-.056-.727-.056h-1.702v2.986h1.702z"/><path fill="#fff" d="M51.221 8.631c.205-.307.465-.553.781-.74.316-.186.672-.318 1.067-.397.396-.079.793-.119 1.193-.119.363 0 .73.026 1.103.077.372.051.712.151 1.019.3s.559.355.754.621c.195.265.293.616.293 1.053v3.753c0 .326.019.638.056.935.037.298.103.521.195.67h-2.01l-.091-.342-.049-.356c-.316.326-.688.553-1.116.684s-.865.195-1.312.195c-.344 0-.665-.042-.963-.125-.298-.083-.558-.214-.781-.391s-.397-.4-.523-.67-.188-.59-.188-.963c0-.409.072-.747.217-1.011.144-.266.33-.477.558-.635.229-.158.488-.277.781-.355.294-.079.589-.142.887-.188s.591-.084.879-.112.544-.07.768-.126c.224-.056.399-.137.53-.244.13-.107.19-.263.182-.468 0-.214-.035-.383-.104-.509-.07-.125-.163-.223-.279-.293s-.251-.116-.405-.14c-.153-.023-.318-.035-.495-.035-.391 0-.697.083-.921.251s-.354.447-.391.837h-1.981c.025-.463.142-.85.346-1.157m3.914 2.798c-.126.042-.261.077-.404.104l-.454.07-.475.07c-.148.028-.295.065-.439.112-.144.046-.27.109-.376.188-.107.079-.193.179-.259.3-.064.121-.098.274-.098.46 0 .177.033.326.098.446.065.121.154.216.266.286s.241.119.391.146c.148.028.302.042.461.042.391 0 .692-.065.906-.195.214-.13.372-.286.475-.468.103-.181.165-.365.188-.551l.035-.447v-.739c-.084.076-.189.134-.315.176"/><path fill="#fff" d="M61.63 16.934c-.381.251-.911.376-1.59.376-.205 0-.407-.007-.607-.021l-.607-.049v-1.632l.572.056s.391.023.586.014c.261-.028.454-.13.579-.307.126-.177.188-.372.188-.586 0-.158-.027-.307-.083-.447l-2.526-6.768h2.107l1.633 4.94h.027l1.577-4.94h2.051l-3.014 8.107c-.213.587-.511 1.006-.893 1.257"/><path fill="#fff" d="M68.133 7.571v.977h.028c.26-.372.574-.66.941-.865s.788-.307 1.263-.307c.456 0 .872.089 1.249.265.377.177.663.489.858.935.214-.316.505-.595.872-.837s.803-.363 1.305-.363c.381 0 .734.046 1.061.14.326.093.604.242.837.446.232.205.414.472.544.803.131.33.195.728.195 1.193v4.828h-1.98v-4.089c0-.241-.01-.469-.028-.684-.019-.214-.07-.4-.153-.558-.084-.158-.207-.284-.37-.377-.163-.093-.384-.139-.663-.139-.278 0-.504.053-.677.16-.172.107-.307.247-.404.419-.098.172-.163.368-.195.586-.032.219-.049.439-.049.663v4.019h-1.981v-4.046l-.014-.635c-.01-.209-.049-.402-.119-.579-.069-.177-.187-.318-.349-.426-.163-.107-.402-.16-.719-.16-.093 0-.216.021-.369.062-.154.042-.303.121-.447.237-.145.117-.268.284-.37.502-.102.219-.153.505-.153.858v4.186h-1.981v-7.214h1.868z"/><path fill="#fff" d="M80.797 13.055c.298.289.726.433 1.284.433.399 0 .744-.1 1.032-.3.288-.2.465-.411.53-.635h1.744c-.279.865-.707 1.484-1.283 1.856-.577.373-1.275.558-2.094.558-.567 0-1.079-.09-1.534-.272-.456-.181-.843-.439-1.159-.774-.315-.335-.561-.735-.732-1.2-.172-.465-.258-.977-.258-1.535 0-.54.088-1.042.266-1.507.176-.465.428-.868.753-1.208.325-.339.714-.607 1.165-.802s.951-.293 1.5-.293c.614 0 1.149.119 1.605.356.455.237.83.556 1.123.956.293.4.504.856.635 1.368.13.512.177 1.046.14 1.605h-5.205c.028.64.191 1.106.488 1.394m2.24-3.796c-.236-.26-.598-.391-1.081-.391-.316 0-.579.054-.788.16-.21.107-.377.24-.503.398-.125.159-.214.326-.265.503-.052.177-.082.335-.091.475h3.224c-.093-.503-.259-.884-.496-1.145"/><path fill="#fff" d="M88.512 7.571v1.005h.042c.251-.419.576-.723.977-.914.399-.19.81-.286 1.228-.286.53 0 .966.072 1.305.216.34.145.607.344.803.6s.332.567.411.935c.079.368.119.775.119 1.221v4.438h-1.981v-4.076c0-.595-.093-1.04-.279-1.333-.187-.293-.517-.439-.991-.439-.539 0-.93.16-1.172.481-.242.321-.362.849-.362 1.583v3.782h-1.981v-7.213h1.881z"/><path fill="#fff" d="M98.866 7.571v1.326h-1.451v3.572c0 .335.056.558.167.669.112.112.335.168.67.168l.321-.014.293-.042v1.535c-.168.028-.354.046-.558.056l-.601.014c-.307 0-.598-.021-.872-.063s-.517-.123-.726-.244c-.209-.121-.375-.293-.495-.516-.121-.224-.182-.517-.182-.879v-4.257h-1.2v-1.325h1.2v-2.163h1.981v2.163h1.453z"/><path fill="#fff" d="M101.482 12.992c.088.154.202.279.342.377s.3.17.481.216c.182.047.37.07.565.07.14 0 .286-.016.439-.049.153-.032.293-.084.418-.153.126-.07.23-.163.314-.279.084-.116.126-.263.126-.439 0-.298-.198-.521-.594-.67-.396-.148-.946-.297-1.653-.446-.288-.065-.57-.142-.844-.23-.275-.088-.52-.205-.732-.349-.215-.144-.387-.325-.517-.544-.131-.218-.195-.486-.195-.802 0-.465.091-.846.271-1.145.182-.297.421-.532.719-.704.298-.172.633-.293 1.005-.363s.754-.104 1.145-.104.77.037 1.137.112c.367.074.695.2.984.376.288.177.527.412.718.705.191.293.305.663.343 1.11h-1.884c-.028-.382-.173-.64-.433-.775-.261-.135-.567-.202-.921-.202l-.363.021c-.13.014-.249.044-.355.09-.107.047-.198.114-.272.203s-.111.207-.111.355c0 .177.064.321.195.433.13.112.3.203.509.272.21.07.449.133.719.188l.823.182c.289.065.57.145.845.237.274.093.518.216.732.37.214.154.386.344.517.572.13.228.195.509.195.844 0 .474-.096.872-.286 1.193-.191.321-.439.579-.747.774-.307.195-.658.333-1.054.412-.396.079-.797.119-1.207.119-.418 0-.827-.042-1.228-.125-.4-.083-.756-.223-1.067-.419-.312-.195-.567-.453-.768-.774-.2-.321-.31-.723-.328-1.207h1.884c0 .211.044.394.133.548"/></svg>