<?xml version="1.0" encoding="utf-8"?>
<!-- Generator: Adobe Illustrator 16.2.1, SVG Export Plug-In . SVG Version: 6.00 Build 0)  -->
<!DOCTYPE svg PUBLIC "-//W3C//DTD SVG 1.1//EN" "http://www.w3.org/Graphics/SVG/1.1/DTD/svg11.dtd">
<svg version="1.1" id="Layer_1" xmlns="http://www.w3.org/2000/svg" xmlns:xlink="http://www.w3.org/1999/xlink" x="0px" y="0px"
	 width="106.15px" height="19.694px" viewBox="0 0 106.15 19.694" enable-background="new 0 0 106.15 19.694" xml:space="preserve">
<path fill="#FFFFFF" d="M12.235,5.66c-0.044-0.591-0.172-1.159-0.373-1.691c-0.502-1.333-1.454-2.442-2.671-3.147
	C8.854,0.627,8.498,0.463,8.125,0.334C7.499,0.119,6.827,0,6.127,0C2.743,0,0,2.743,0,6.127c0,3.384,6.127,13.567,6.127,13.567
	s0.893-1.484,1.998-3.507c-1.717-3.146-3.944-7.595-4.119-9.796C3.999,6.299,3.994,6.21,3.994,6.127c0-0.157,0.008-0.312,0.02-0.466
	c0.197-0.987,1.068-1.73,2.113-1.73c0.134,0,0.265,0.014,0.392,0.038C7.25,4.103,7.852,4.605,8.125,5.277
	C8.226,5.527,8.283,5.8,8.283,6.087c0,0.197-0.06,0.461-0.159,0.763C7.88,7.594,7.397,8.571,6.966,9.375
	c0.585,1.506,1.405,3.216,2.225,4.805c0.82-1.589,1.639-3.299,2.225-4.805c0.454-1.168,0.765-2.213,0.827-2.984
	c0.022-0.112,0.036-0.215,0.036-0.304C12.278,5.941,12.263,5.798,12.235,5.66"/>
<path fill="#FFFFFF" d="M21.984,4.822c0.623,0,1.153,0.091,1.591,0.272c0.437,0.181,0.793,0.421,1.067,0.718
	c0.274,0.298,0.475,0.637,0.6,1.019c0.125,0.381,0.188,0.777,0.188,1.186c0,0.4-0.063,0.793-0.188,1.179
	c-0.125,0.386-0.326,0.728-0.6,1.025s-0.63,0.537-1.067,0.719c-0.438,0.181-0.968,0.272-1.591,0.272h-2.302v3.572h-2.191V4.822
	H21.984z M21.384,9.51c0.251,0,0.493-0.019,0.726-0.056c0.233-0.037,0.438-0.109,0.614-0.216c0.176-0.107,0.318-0.258,0.425-0.454
	c0.107-0.195,0.161-0.451,0.161-0.767s-0.053-0.572-0.161-0.768c-0.107-0.196-0.249-0.347-0.425-0.454
	c-0.177-0.107-0.381-0.179-0.614-0.216c-0.232-0.037-0.474-0.056-0.726-0.056h-1.702V9.51H21.384z"/>
<path fill="#FFFFFF" d="M26.413,4.822h1.981v1.632h-1.981V4.822z M28.395,14.785h-1.981V7.571h1.981V14.785z"/>
<path fill="#FFFFFF" d="M31.841,7.571v1.005h0.042c0.251-0.419,0.577-0.723,0.977-0.914c0.4-0.19,0.81-0.286,1.228-0.286
	c0.53,0,0.965,0.072,1.305,0.216c0.339,0.145,0.607,0.344,0.802,0.6c0.196,0.256,0.333,0.567,0.412,0.935
	c0.079,0.368,0.119,0.775,0.119,1.221v4.438h-1.981V10.71c0-0.595-0.094-1.04-0.279-1.333c-0.187-0.293-0.517-0.439-0.991-0.439
	c-0.54,0-0.931,0.16-1.172,0.481c-0.242,0.321-0.363,0.849-0.363,1.583v3.782h-1.981V7.571H31.841z"/>
<path fill="#FFFFFF" d="M46.814,4.822c0.623,0,1.153,0.091,1.591,0.272c0.437,0.181,0.793,0.421,1.067,0.718
	c0.274,0.298,0.474,0.637,0.6,1.019c0.126,0.381,0.188,0.777,0.188,1.186c0,0.4-0.062,0.793-0.188,1.179
	c-0.126,0.386-0.325,0.728-0.6,1.025s-0.631,0.537-1.067,0.719c-0.438,0.181-0.968,0.272-1.591,0.272h-2.303v3.572h-2.19V4.822
	H46.814z M46.213,9.51c0.252,0,0.493-0.019,0.727-0.056c0.231-0.037,0.437-0.109,0.613-0.216s0.318-0.258,0.426-0.454
	c0.106-0.195,0.16-0.451,0.16-0.767s-0.054-0.572-0.16-0.768c-0.107-0.196-0.249-0.347-0.426-0.454S47.171,6.618,46.94,6.58
	c-0.233-0.037-0.475-0.056-0.727-0.056h-1.702V9.51H46.213z"/>
<path fill="#FFFFFF" d="M51.221,8.631c0.205-0.307,0.465-0.553,0.781-0.74c0.316-0.186,0.672-0.318,1.067-0.397
	c0.396-0.079,0.793-0.119,1.193-0.119c0.363,0,0.73,0.026,1.103,0.077c0.372,0.051,0.712,0.151,1.019,0.3s0.559,0.355,0.754,0.621
	c0.195,0.265,0.293,0.616,0.293,1.053v3.753c0,0.326,0.019,0.638,0.056,0.935c0.037,0.298,0.103,0.521,0.195,0.67h-2.01
	c-0.037-0.112-0.067-0.226-0.091-0.342s-0.039-0.235-0.049-0.356c-0.316,0.326-0.688,0.553-1.116,0.684s-0.865,0.195-1.312,0.195
	c-0.344,0-0.665-0.042-0.963-0.125c-0.298-0.083-0.558-0.214-0.781-0.391s-0.397-0.4-0.523-0.67c-0.126-0.27-0.188-0.59-0.188-0.963
	c0-0.409,0.072-0.747,0.217-1.011c0.144-0.266,0.33-0.477,0.558-0.635c0.229-0.158,0.488-0.277,0.781-0.355
	c0.294-0.079,0.589-0.142,0.887-0.188s0.591-0.084,0.879-0.112s0.544-0.07,0.768-0.126c0.224-0.056,0.399-0.137,0.53-0.244
	c0.13-0.107,0.19-0.263,0.182-0.468c0-0.214-0.035-0.383-0.104-0.509c-0.07-0.125-0.163-0.223-0.279-0.293s-0.251-0.116-0.405-0.14
	c-0.153-0.023-0.318-0.035-0.495-0.035c-0.391,0-0.697,0.083-0.921,0.251s-0.354,0.447-0.391,0.837h-1.981
	C50.9,9.325,51.017,8.938,51.221,8.631 M55.135,11.429c-0.126,0.042-0.261,0.077-0.404,0.104c-0.145,0.028-0.296,0.051-0.454,0.07
	c-0.157,0.019-0.315,0.042-0.475,0.07c-0.148,0.028-0.295,0.065-0.439,0.112c-0.144,0.046-0.27,0.109-0.376,0.188
	c-0.107,0.079-0.193,0.179-0.259,0.3c-0.064,0.121-0.098,0.274-0.098,0.46c0,0.177,0.033,0.326,0.098,0.446
	c0.065,0.121,0.154,0.216,0.266,0.286s0.241,0.119,0.391,0.146c0.148,0.028,0.302,0.042,0.461,0.042
	c0.391,0,0.692-0.065,0.906-0.195c0.214-0.13,0.372-0.286,0.475-0.468c0.103-0.181,0.165-0.365,0.188-0.551s0.035-0.335,0.035-0.447
	v-0.739C55.366,11.329,55.261,11.387,55.135,11.429"/>
<path fill="#FFFFFF" d="M61.63,16.934c-0.381,0.251-0.911,0.376-1.59,0.376c-0.205,0-0.407-0.007-0.607-0.021
	c-0.2-0.014-0.402-0.03-0.607-0.049v-1.632c0.187,0.019,0.377,0.037,0.572,0.056s0.391,0.023,0.586,0.014
	c0.261-0.028,0.454-0.13,0.579-0.307c0.126-0.177,0.188-0.372,0.188-0.586c0-0.158-0.027-0.307-0.083-0.447l-2.526-6.768h2.107
	l1.633,4.94h0.027l1.577-4.94h2.051l-3.014,8.107C62.31,16.264,62.012,16.683,61.63,16.934"/>
<path fill="#FFFFFF" d="M68.133,7.571v0.977h0.028c0.26-0.372,0.574-0.66,0.941-0.865s0.788-0.307,1.263-0.307
	c0.456,0,0.872,0.089,1.249,0.265c0.377,0.177,0.663,0.489,0.858,0.935c0.214-0.316,0.505-0.595,0.872-0.837
	c0.367-0.242,0.803-0.363,1.305-0.363c0.381,0,0.734,0.046,1.061,0.14c0.326,0.093,0.604,0.242,0.837,0.446
	c0.232,0.205,0.414,0.472,0.544,0.803c0.131,0.33,0.195,0.728,0.195,1.193v4.828h-1.98v-4.089c0-0.241-0.01-0.469-0.028-0.684
	c-0.019-0.214-0.07-0.4-0.153-0.558c-0.084-0.158-0.207-0.284-0.37-0.377c-0.163-0.093-0.384-0.139-0.663-0.139
	c-0.278,0-0.504,0.053-0.677,0.16c-0.172,0.107-0.307,0.247-0.404,0.419c-0.098,0.172-0.163,0.368-0.195,0.586
	c-0.032,0.219-0.049,0.439-0.049,0.663v4.019h-1.981v-4.046c0-0.214-0.005-0.426-0.014-0.635c-0.01-0.209-0.049-0.402-0.119-0.579
	c-0.069-0.177-0.187-0.318-0.349-0.426c-0.163-0.107-0.402-0.16-0.719-0.16c-0.093,0-0.216,0.021-0.369,0.062
	c-0.154,0.042-0.303,0.121-0.447,0.237c-0.145,0.117-0.268,0.284-0.37,0.502c-0.102,0.219-0.153,0.505-0.153,0.858v4.186h-1.981
	V7.571H68.133z"/>
<path fill="#FFFFFF" d="M80.797,13.055c0.298,0.289,0.726,0.433,1.284,0.433c0.399,0,0.744-0.1,1.032-0.3
	c0.288-0.2,0.465-0.411,0.53-0.635h1.744c-0.279,0.865-0.707,1.484-1.283,1.856c-0.577,0.373-1.275,0.558-2.094,0.558
	c-0.567,0-1.079-0.09-1.534-0.272c-0.456-0.181-0.843-0.439-1.159-0.774c-0.315-0.335-0.561-0.735-0.732-1.2
	c-0.172-0.465-0.258-0.977-0.258-1.535c0-0.54,0.088-1.042,0.266-1.507c0.176-0.465,0.428-0.868,0.753-1.208
	c0.325-0.339,0.714-0.607,1.165-0.802s0.951-0.293,1.5-0.293c0.614,0,1.149,0.119,1.605,0.356c0.455,0.237,0.83,0.556,1.123,0.956
	c0.293,0.4,0.504,0.856,0.635,1.368c0.13,0.512,0.177,1.046,0.14,1.605h-5.205C80.337,12.301,80.5,12.767,80.797,13.055
	 M83.037,9.259c-0.236-0.26-0.598-0.391-1.081-0.391c-0.316,0-0.579,0.054-0.788,0.16c-0.21,0.107-0.377,0.24-0.503,0.398
	C80.54,9.585,80.451,9.752,80.4,9.929c-0.052,0.177-0.082,0.335-0.091,0.475h3.224C83.44,9.901,83.274,9.52,83.037,9.259"/>
<path fill="#FFFFFF" d="M88.512,7.571v1.005h0.042c0.251-0.419,0.576-0.723,0.977-0.914c0.399-0.19,0.81-0.286,1.228-0.286
	c0.53,0,0.966,0.072,1.305,0.216c0.34,0.145,0.607,0.344,0.803,0.6s0.332,0.567,0.411,0.935c0.079,0.368,0.119,0.775,0.119,1.221
	v4.438h-1.981V10.71c0-0.595-0.093-1.04-0.279-1.333c-0.187-0.293-0.517-0.439-0.991-0.439c-0.539,0-0.93,0.16-1.172,0.481
	c-0.242,0.321-0.362,0.849-0.362,1.583v3.782h-1.981V7.571H88.512z"/>
<path fill="#FFFFFF" d="M98.866,7.571v1.326h-1.451v3.572c0,0.335,0.056,0.558,0.167,0.669c0.112,0.112,0.335,0.168,0.67,0.168
	c0.112,0,0.219-0.005,0.321-0.014s0.2-0.023,0.293-0.042v1.535c-0.168,0.028-0.354,0.046-0.558,0.056
	c-0.205,0.009-0.405,0.014-0.601,0.014c-0.307,0-0.598-0.021-0.872-0.063s-0.517-0.123-0.726-0.244
	c-0.209-0.121-0.375-0.293-0.495-0.516c-0.121-0.224-0.182-0.517-0.182-0.879V8.896h-1.2V7.571h1.2V5.408h1.981v2.163H98.866z"/>
<path fill="#FFFFFF" d="M101.482,12.992c0.088,0.154,0.202,0.279,0.342,0.377s0.3,0.17,0.481,0.216
	c0.182,0.047,0.37,0.07,0.565,0.07c0.14,0,0.286-0.016,0.439-0.049c0.153-0.032,0.293-0.084,0.418-0.153
	c0.126-0.07,0.23-0.163,0.314-0.279c0.084-0.116,0.126-0.263,0.126-0.439c0-0.298-0.198-0.521-0.594-0.67
	c-0.396-0.148-0.946-0.297-1.653-0.446c-0.288-0.065-0.57-0.142-0.844-0.23c-0.275-0.088-0.52-0.205-0.732-0.349
	c-0.215-0.144-0.387-0.325-0.517-0.544c-0.131-0.218-0.195-0.486-0.195-0.802c0-0.465,0.091-0.846,0.271-1.145
	c0.182-0.297,0.421-0.532,0.719-0.704c0.298-0.172,0.633-0.293,1.005-0.363s0.754-0.104,1.145-0.104s0.77,0.037,1.137,0.112
	c0.367,0.074,0.695,0.2,0.984,0.376c0.288,0.177,0.527,0.412,0.718,0.705c0.191,0.293,0.305,0.663,0.343,1.11h-1.884
	c-0.028-0.382-0.173-0.64-0.433-0.775c-0.261-0.135-0.567-0.202-0.921-0.202c-0.112,0-0.233,0.007-0.363,0.021
	c-0.13,0.014-0.249,0.044-0.355,0.09c-0.107,0.047-0.198,0.114-0.272,0.203s-0.111,0.207-0.111,0.355
	c0,0.177,0.064,0.321,0.195,0.433c0.13,0.112,0.3,0.203,0.509,0.272c0.21,0.07,0.449,0.133,0.719,0.188
	c0.27,0.056,0.544,0.117,0.823,0.182c0.289,0.065,0.57,0.145,0.845,0.237c0.274,0.093,0.518,0.216,0.732,0.37
	c0.214,0.154,0.386,0.344,0.517,0.572c0.13,0.228,0.195,0.509,0.195,0.844c0,0.474-0.096,0.872-0.286,1.193
	c-0.191,0.321-0.439,0.579-0.747,0.774c-0.307,0.195-0.658,0.333-1.054,0.412c-0.396,0.079-0.797,0.119-1.207,0.119
	c-0.418,0-0.827-0.042-1.228-0.125c-0.4-0.083-0.756-0.223-1.067-0.419c-0.312-0.195-0.567-0.453-0.768-0.774
	c-0.2-0.321-0.31-0.723-0.328-1.207h1.884C101.349,12.655,101.393,12.838,101.482,12.992"/>
</svg>
