<svg xmlns="http://www.w3.org/2000/svg" width="327.238" height="56.697"><path fill="#fff" d="M75.235 15.57c-1.904 0-3.383.502-4.859 1.264v14.137c0 .387-.314.734-.704.734h-3.235c-.382 0-.703-.348-.703-.734v-18.379c0-.396.321-.716.703-.716h3.063c.381 0 .703.32.703.716v.726c1.714-1.33 3.615-1.687 5.031-1.687.377 0 .703.319.703.703v2.535c.001.389-.325.701-.702.701zm17.639 7.847h-11.456v.099c0 2.041.844 4.464 4.216 4.464 2.564 0 4.99-.208 6.463-.352h.11c.354 0 .634.188.634.533v2.313c0 .561-.104.814-.744.916-2.275.418-3.657.604-6.815.604-3.516 0-8.514-1.9-8.514-8.832v-2.598c0-5.49 3.062-8.934 8.444-8.934 5.412 0 8.374 3.697 8.374 8.934v1.967c0 .564-.212.886-.712.886zm-3.969-3.458c0-2.736-1.518-4.318-3.692-4.318-2.178 0-3.761 1.542-3.761 4.318v.154h7.453v-.154zm20.821 11.746h-3.001c-.377 0-.703-.314-.703-.697v-.566c-1.611.979-3.265 1.553-4.955 1.553-2.907 0-6.081-1.131-6.081-5.878v-.138c0-4.005 2.46-6.086 8.583-6.086h2.212v-1.541c0-2.279-1.021-2.849-3.09-2.849-2.252 0-4.572.139-5.734.282h-.178c-.354 0-.628-.113-.628-.604v-2.249c0-.389.208-.628.666-.735 1.406-.283 3.439-.565 5.874-.565 4.991 0 7.73 2.218 7.73 6.72v12.657c0 .382-.321.696-.695.696zm-3.945-8.713h-2.212c-3.201 0-3.9 1.019-3.9 2.986v.138c0 1.729.771 2.182 2.525 2.182 1.263 0 2.565-.421 3.587-.986v-4.32zm11.063 8.713h-3.265c-.391 0-.707-.348-.707-.734v-25.312c0-.391.316-.697.707-.697h3.265c.386 0 .668.307.668.697v25.312c0 .386-.283.734-.668.734zm18.912-8.288h-11.468v.099c0 2.041.842 4.464 4.221 4.464 2.564 0 4.986-.208 6.468-.352h.104c.347 0 .634.188.634.533v2.313c0 .561-.104.814-.738.916-2.284.418-3.659.604-6.824.604-3.507 0-8.504-1.9-8.504-8.832v-2.598c0-5.49 3.058-8.934 8.427-8.934 5.42 0 8.378 3.697 8.378 8.934v1.967c-.001.564-.218.886-.698.886zm-3.983-3.458c0-2.736-1.504-4.318-3.698-4.318-2.175 0-3.75 1.542-3.75 4.318v.154h7.448v-.154zm13.477 12.035c-1.381 0-4.331-.186-6.302-.705-.424-.107-.668-.398-.668-.814v-2.103c0-.286.244-.556.594-.556h.143c1.692.198 4.853.376 5.906.376 2.188 0 2.5-.736 2.5-1.684 0-.668-.421-1.087-1.545-1.801l-4.815-2.952c-1.729-1.05-2.964-2.81-2.964-4.848 0-3.515 2.225-5.276 6.692-5.276 2.844 0 4.464.319 6.255.703.414.11.628.39.628.811v2.036c0 .428-.214.671-.554.671h-.144c-.99-.14-3.807-.425-5.812-.425-1.686 0-2.416.392-2.416 1.48 0 .565.526.914 1.401 1.443l4.608 2.812c2.952 1.792 3.372 3.544 3.372 5.345.002 3.054-2.279 5.487-6.879 5.487zm19.538-.25c-.835.145-1.619.25-2.388.25-3.974 0-5.586-.885-5.586-5.589v-11.04l-3.311-.495c-.385-.067-.694-.319-.694-.706v-1.571c0-.396.31-.716.694-.716h3.311v-4.653c0-.387.312-.63.699-.701l3.265-.559h.145c.315 0 .567.173.567.524v5.388h3.162c.379 0 .705.32.705.716v2.066c0 .386-.326.706-.705.706h-3.162v11.04c0 1.757.1 1.967 1.369 1.967h1.863c.457 0 .736.175.736.526v2.211c0 .355-.202.562-.67.636zm16.56-.039h-2.984c-.391 0-.703-.314-.703-.697v-.566c-1.623.979-3.271 1.553-4.961 1.553-2.918 0-6.078-1.131-6.078-5.878v-.138c0-4.005 2.457-6.086 8.572-6.086h2.223v-1.541c0-2.279-1.02-2.849-3.102-2.849-2.246 0-4.564.139-5.721.282h-.182c-.354 0-.637-.113-.637-.604v-2.249c0-.389.215-.628.672-.735 1.404-.283 3.443-.565 5.867-.565 5 0 7.74 2.218 7.74 6.72v12.657c.001.382-.315.696-.706.696zm-3.931-8.713h-2.223c-3.197 0-3.895 1.019-3.895 2.986v.138c0 1.729.77 2.182 2.533 2.182 1.264 0 2.564-.421 3.584-.986v-4.32zm17.187 8.752c-.848.145-1.615.25-2.391.25-3.971 0-5.594-.885-5.594-5.589v-11.04l-3.301-.495c-.385-.067-.705-.319-.705-.706v-1.571c0-.396.32-.716.705-.716h3.301v-4.653c0-.387.32-.63.709-.701l3.271-.559h.137c.309 0 .561.173.561.524v5.388h3.162c.389 0 .705.32.705.716v2.066c0 .386-.316.706-.705.706h-3.162v11.04c0 1.757.107 1.967 1.371 1.967h1.859c.465 0 .75.175.75.526v2.211c.001.355-.222.562-.673.636zm17.994-8.327h-11.457v.099c0 2.041.85 4.464 4.219 4.464 2.574 0 4.99-.208 6.471-.352h.109c.346 0 .633.188.633.533v2.313c0 .561-.107.814-.742.916-2.285.418-3.656.604-6.816.604-3.518 0-8.512-1.9-8.512-8.832v-2.598c0-5.49 3.057-8.934 8.443-8.934 5.404 0 8.359 3.697 8.359 8.934v1.967c0 .564-.207.886-.707.886zm-3.969-3.458c0-2.736-1.516-4.318-3.684-4.318-2.18 0-3.766 1.542-3.766 4.318v.154h7.449v-.154zm9.879 11.746h-3.125c-.393 0-.703-.314-.703-.697v-3.973c0-.383.311-.668.703-.668h3.125c.389 0 .701.285.701.668v3.973c0 .383-.312.697-.701.697zm14.487-.172c-.816.211-2.398.461-4.533.461-4.572 0-8.016-2.814-8.016-8.542v-3.275c0-5.727 3.443-8.545 8.016-8.545 2.135 0 3.717.245 4.533.457.6.144.734.356.734.919v2.285c0 .349-.275.526-.635.526h-.1c-1.404-.178-2.246-.249-4.533-.249-1.656 0-3.383.948-3.383 4.606v3.275c0 3.65 1.727 4.605 3.383 4.605 2.287 0 3.129-.077 4.533-.241h.1c.359 0 .635.164.635.515v2.285c0 .567-.135.776-.734.918zm10.828.461c-5.514 0-8.4-3.738-8.4-8.76v-2.847c0-5.022 2.887-8.756 8.4-8.756 5.521 0 8.393 3.733 8.393 8.756v2.847c-.001 5.022-2.872 8.76-8.393 8.76zm3.763-11.607c0-2.879-1.305-4.746-3.764-4.746-2.465 0-3.762 1.867-3.762 4.746v2.847c0 2.882 1.297 4.746 3.762 4.746 2.459 0 3.764-1.864 3.764-4.746v-2.847zm31.189 11.318h-3.238c-.383 0-.705-.348-.705-.734v-11.948c0-2.709-.564-3.414-2.533-3.414-.664 0-2 .21-3.268.873.105.778.141 1.655.141 2.541v11.948c0 .387-.312.734-.703.734h-3.234c-.387 0-.701-.348-.701-.734v-11.948c0-2.709-.463-3.414-2.43-3.414-.738 0-1.795.384-3.234 1.16v14.202c0 .387-.316.734-.705.734h-3.232c-.391 0-.701-.348-.701-.734v-18.379c0-.396.311-.716.701-.716h3.064c.381 0 .697.32.697.716v.726c1.479-.946 2.955-1.687 5.031-1.687 2.006 0 3.305.601 4.115 1.582 1.787-.981 3.369-1.582 5.793-1.582 4.775 0 5.842 3.275 5.842 7.392v11.948c-.001.386-.317.734-.7.734zm6.531 0h-3.127c-.389 0-.707-.314-.707-.697v-3.973c0-.383.318-.668.707-.668h3.127c.383 0 .709.285.709.668v3.973c0 .383-.326.697-.709.697zm17.096 0h-2.996c-.387 0-.695-.314-.695-.697v-.566c-1.619.979-3.271 1.553-4.961 1.553-2.92 0-6.082-1.131-6.082-5.878v-.138c0-4.005 2.461-6.086 8.584-6.086h2.207v-1.541c0-2.279-1.01-2.849-3.092-2.849-2.26 0-4.57.139-5.736.282h-.168c-.352 0-.635-.113-.635-.604v-2.249c0-.389.213-.628.668-.735 1.41-.283 3.447-.565 5.871-.565 4.988 0 7.738 2.218 7.738 6.72v12.657c0 .382-.32.696-.703.696zm-3.944-8.713h-2.207c-3.203 0-3.91 1.019-3.91 2.986v.138c0 1.729.766 2.182 2.527 2.182 1.277 0 2.58-.421 3.59-.986v-4.32zm22.497 8.713h-3.24c-.381 0-.695-.314-.695-.697v-.812c-1.83 1.195-3.277 1.758-5.521 1.758-1.76 0-3.307-.453-4.33-1.479-1.301-1.295-1.754-3.479-1.754-6.39v-11.464c0-.389.314-.744.701-.744h3.234c.389 0 .705.355.705.744v11.464c0 1.756.141 2.767.809 3.371.49.421 1.094.63 2.184.63 1.299 0 2.984-.868 3.973-1.4v-14.065c0-.389.314-.744.695-.744h3.24c.389 0 .703.355.703.744v18.387c-.001.383-.316.697-.704.697z"/><path fill="#C8102E" d="M56.699 28.502c.092-15.662-12.543-28.423-28.199-28.502-15.663-.089-28.417 12.542-28.5 28.198-.084 15.662 12.54 28.414 28.198 28.5h.16c15.585-.001 28.255-12.593 28.341-28.196"/><g opacity=".7"><linearGradient id="a" gradientUnits="userSpaceOnUse" x1="8.304" y1="8.3" x2="48.399" y2="48.395"><stop offset="0" stop-color="#fff"/><stop offset="1"/></linearGradient><path fill="url(#a)" d="M56.701 28.502c.09-15.662-12.543-28.423-28.201-28.502-15.661-.089-28.415 12.542-28.499 28.198-.084 15.662 12.541 28.414 28.197 28.5h.16c15.587-.001 28.257-12.593 28.343-28.196"/></g><path fill="#fff" d="M46.887 24.393v-.004l-16.802-16.724c-.423-.477-1.05-.764-1.742-.764-.684 0-1.306.287-1.743.764l-16.804 16.724v.004c-.646.656-1.043 1.557-1.043 2.553 0 2 1.615 3.625 3.624 3.625h2.298v12.732c0 1.305 1.051 2.363 2.366 2.371h22.606c1.314-.008 2.361-1.066 2.361-2.371l-.007-12.732h2.316c1.996 0 3.629-1.625 3.629-3.625.001-.996-.415-1.897-1.059-2.553m-32.613 1.809l14.083-14.012 14.085 14.012-4.852.006v15.042h-18.473v-15.042l-4.843-.006z"/><path fill="#C9C9C9" d="M72.933 49.512l-.859-2.498h-4.587l-.845 2.498h-1.344l3.731-10.549h1.542l3.729 10.549h-1.367zm-3.171-9.233l-1.854 5.479h3.731l-1.877-5.479zm10.362 9.233l-.105-1.152c-.383.869-1.352 1.328-2.232 1.328-1.703 0-2.572-1.033-2.572-2.766v-4.947h1.262v4.768c0 1.129.422 1.801 1.605 1.801.506 0 .922-.229 1.248-.574.486-.484.627-1.307.627-2.074v-3.92h1.27v7.537h-1.103zm8.344-.66c-.574.596-1.467.848-2.453.848-.941 0-1.801-.219-2.438-.848-.459-.441-.729-1.084-.729-1.721h1.27c.01.523.252.902.602 1.176.34.256.889.336 1.355.336.531 0 .996-.08 1.387-.414.201-.16.369-.475.369-.816 0-.566-.402-.971-1.176-1.072-.324-.045-1.172-.148-1.697-.223-1.131-.182-1.84-.881-1.84-2.033 0-.574.281-1.123.619-1.463.494-.51 1.279-.836 2.213-.836 1 0 1.898.314 2.398.951.328.406.539.832.539 1.441h-1.267c-.018-.383-.213-.74-.43-.932-.307-.285-.725-.404-1.24-.404-.295 0-.521 0-.877.146-.471.197-.754.602-.754 1.021 0 .617.391.887 1.01.971.416.064 1.012.121 1.812.256 1.078.184 1.922.955 1.922 2.084 0 .649-.232 1.164-.595 1.532zm4.871.761c-1.621 0-2.068-1.033-2.068-2.041v-4.506h-1.463v-1.092h1.463v-1.92l1.268-.293v2.213h2.229v1.092h-2.229v4.357c0 .736.303 1.029 1 1.029.543 0 1.301-.139 1.301-.139v1.09c-.339.091-.802.21-1.501.21zm6.402-6.449c-.594 0-1.09.258-1.432.588-.619.576-.682 1.623-.682 2.41v3.35h-1.25v-7.537h1.115l.096 1.326c.395-.918 1.301-1.367 2.254-1.367.193 0 .4.012.592.041v1.242c-.222-.049-.472-.053-.693-.053zm7.006 6.449c-.666 0-1.09-.506-1.09-1.145h-.029c-.428.76-1.365 1.23-2.422 1.23-1.732 0-2.586-1.156-2.586-2.318 0-.969.619-2.232 2.666-2.35l2.299-.135v-.555c0-.365-.045-.83-.385-1.139-.26-.24-.627-.393-1.242-.393-.676 0-1.117.201-1.363.453-.238.23-.373.533-.373.906h-1.238c.021-.689.273-1.18.664-1.578.5-.537 1.395-.805 2.311-.805 1.463 0 2.291.623 2.656 1.445.146.338.221.723.221 1.158v3.645c0 .402.162.51.416.51.137 0 .322-.051.322-.051v.939c-.268.136-.516.183-.827.183zm-1.162-3.74l-2.021.115c-.76.059-1.652.404-1.652 1.359 0 .674.42 1.295 1.488 1.295.58 0 1.143-.189 1.541-.609.445-.461.645-1.084.645-1.709v-.451zm4.943 3.727c-1.107 0-1.58-.66-1.58-1.846v-8.986h1.266v8.908c0 .504.164.777.688.777.408 0 .52-.018.52-.018v1.076c-.001.001-.288.089-.894.089zm2.262-9.34v-1.492h1.477v1.492h-1.477zm.084 9.252v-7.537h1.301v7.537h-1.301zm9.098.101c-.672 0-1.088-.506-1.088-1.145h-.029c-.434.76-1.373 1.23-2.426 1.23-1.725 0-2.588-1.156-2.588-2.318 0-.969.623-2.232 2.676-2.35l2.295-.135v-.555c0-.365-.049-.83-.391-1.139-.248-.24-.623-.393-1.232-.393-.686 0-1.119.201-1.367.453-.24.23-.371.533-.371.906h-1.234c.008-.689.262-1.18.652-1.578.504-.537 1.396-.805 2.32-.805 1.451 0 2.295.623 2.656 1.445.137.338.215.723.215 1.158v3.645c0 .402.164.51.422.51.125 0 .314-.051.314-.051v.939c-.264.136-.512.183-.824.183zm-1.16-3.74l-2.029.115c-.76.059-1.648.404-1.648 1.359 0 .674.414 1.295 1.494 1.295.572 0 1.137-.189 1.545-.609.443-.461.639-1.084.639-1.709v-.451zm2.638-2.773l-.389-.713c.771-.334.945-.775.945-1.629h-.922v-1.74h1.816v1.74c.001 1.101-.368 1.888-1.45 2.342zm6.914 5.752c-.578.596-1.477.848-2.457.848-.938 0-1.805-.219-2.445-.848-.453-.441-.725-1.084-.725-1.721h1.264c.016.523.252.902.613 1.176.338.256.877.336 1.355.336.523 0 .998-.08 1.373-.414.221-.16.385-.475.385-.816 0-.566-.416-.971-1.178-1.072-.332-.045-1.174-.148-1.695-.223-1.133-.182-1.846-.881-1.846-2.033 0-.574.277-1.123.623-1.463.492-.51 1.275-.836 2.219-.836.994 0 1.887.314 2.395.951.324.406.533.832.533 1.441h-1.264c-.012-.383-.207-.74-.436-.932-.305-.285-.721-.404-1.229-.404-.301 0-.521 0-.881.146-.479.197-.762.602-.762 1.021 0 .617.387.887 1.01.971.42.064 1.016.121 1.82.256 1.074.184 1.92.955 1.92 2.084.002.649-.24 1.164-.592 1.532zm12.467.66l-5.182-8.486v8.486h-1.273v-10.549h1.482l5.18 8.506v-8.506h1.281v10.549h-1.488zm8.885-.686c-.543.531-1.324.873-2.268.873-.963 0-1.732-.342-2.291-.873-.811-.805-1.068-1.893-1.068-3.082 0-1.188.258-2.273 1.068-3.078.559-.539 1.328-.881 2.291-.881.943 0 1.725.342 2.268.881.822.805 1.068 1.891 1.068 3.078 0 1.19-.246 2.277-1.068 3.082zm-.916-5.42c-.322-.307-.771-.543-1.352-.543-.605 0-1.043.236-1.365.543-.535.547-.695 1.455-.695 2.338 0 .875.16 1.791.695 2.334.322.312.76.537 1.365.537.58 0 1.029-.225 1.352-.537.527-.543.697-1.459.697-2.334 0-.883-.17-1.791-.697-2.338zm2.846 6.106v-1.773h1.764v1.773h-1.764zm4.949 0v-8.904l-2.457 1.801v-1.41l2.529-1.832h1.219v10.346h-1.291zm13.931-.555c-.482.459-1.18.762-2.055.762-.824 0-1.791-.391-2.191-1.076v4.094h-1.258v-10.743h1.109l.084.982c.434-.764 1.406-1.174 2.256-1.174.924 0 1.635.309 2.119.818.715.729 1.09 1.873 1.09 3.123 0 1.296-.39 2.486-1.154 3.214zm-2.268-6.094c-.545 0-.926.236-1.221.506-.629.555-.828 1.453-.828 2.389 0 .934.199 1.842.828 2.402.295.264.676.482 1.221.482 1.684 0 2.131-1.496 2.131-2.885 0-1.384-.447-2.894-2.131-2.894zm8.6.301c-.598 0-1.088.258-1.42.588-.615.576-.691 1.623-.691 2.41v3.35h-1.247v-7.537h1.113l.102 1.326c.385-.918 1.293-1.367 2.256-1.367.189 0 .398.012.584.041v1.242c-.217-.049-.474-.053-.697-.053zm6.922 5.662c-.549.531-1.318.873-2.273.873-.957 0-1.729-.342-2.275-.873-.818-.805-1.066-1.893-1.066-3.082 0-1.188.248-2.273 1.066-3.078.547-.539 1.318-.881 2.275-.881.955 0 1.725.342 2.273.881.818.805 1.064 1.891 1.064 3.078 0 1.19-.246 2.277-1.064 3.082zm-.922-5.42c-.312-.307-.762-.543-1.352-.543-.592 0-1.043.236-1.363.543-.521.547-.695 1.455-.695 2.338 0 .875.174 1.791.695 2.334.32.312.771.537 1.363.537.59 0 1.039-.225 1.352-.537.533-.543.695-1.459.695-2.334 0-.883-.162-1.791-.695-2.338zm9.205 5.551c-.484.459-1.184.762-2.066.762-.814 0-1.789-.391-2.184-1.076v4.094h-1.266v-10.743h1.111l.096.982c.434-.764 1.396-1.174 2.242-1.174.924 0 1.645.309 2.127.818.719.729 1.09 1.873 1.09 3.123 0 1.296-.382 2.486-1.15 3.214zm-2.279-6.094c-.543 0-.916.236-1.213.506-.623.555-.83 1.453-.83 2.389 0 .934.207 1.842.83 2.402.297.264.67.482 1.213.482 1.695 0 2.141-1.496 2.141-2.885-.001-1.384-.446-2.894-2.141-2.894zm11.451 3.299h-5.324c0 .684.27 1.434.721 1.887.348.342.805.531 1.389.531.592 0 1.092-.156 1.4-.492.203-.207.34-.412.443-.809h1.238c-.107.742-.551 1.439-1.16 1.854-.529.361-1.209.566-1.922.566-1.053 0-1.916-.447-2.498-1.125-.627-.736-.939-1.729-.939-2.807 0-.906.164-1.709.584-2.398.537-.912 1.529-1.584 2.836-1.584.969 0 1.748.379 2.293.967.613.67.969 1.637.957 2.648l-.018.762zm-1.742-2.623c-.307-.41-.818-.686-1.49-.686-1.371 0-2.035 1.121-2.07 2.217h4.02c-.001-.564-.16-1.129-.46-1.531zm6.715-.375c-.598 0-1.084.258-1.426.588-.613.576-.688 1.623-.688 2.41v3.35h-1.248v-7.537h1.113l.111 1.326c.381-.918 1.289-1.367 2.236-1.367.195 0 .404.012.605.041v1.242c-.229-.049-.483-.053-.703-.053zm4.65 6.449c-1.611 0-2.066-1.033-2.066-2.041v-4.506h-1.457v-1.092h1.457v-1.92l1.273-.293v2.213h2.229v1.092h-2.229v4.357c0 .736.311 1.029 1.012 1.029.537 0 1.289-.139 1.289-.139v1.09c-.342.091-.801.21-1.508.21zm5.435 1.442c-.359.971-.9 1.604-2.037 1.604-.623 0-1.049-.117-1.148-.146v-1.094s.406.115.902.115c.535 0 .914-.199 1.121-.758l.482-1.264-3.004-7.537h1.426l2.219 5.947 2.113-5.947h1.322l-3.396 9.08zm12.877-2.203c-.568.596-1.461.848-2.439.848-.936 0-1.807-.219-2.439-.848-.467-.441-.732-1.084-.732-1.721h1.264c.014.523.256.902.611 1.176.348.256.879.336 1.35.336.523 0 .996-.08 1.383-.414.219-.16.375-.475.375-.816 0-.566-.406-.971-1.17-1.072-.328-.045-1.176-.148-1.699-.223-1.129-.182-1.848-.881-1.848-2.033 0-.574.291-1.123.621-1.463.5-.51 1.285-.836 2.229-.836.984 0 1.883.314 2.383.951.332.406.537.832.537 1.441h-1.266c-.006-.383-.197-.74-.428-.932-.309-.285-.727-.404-1.227-.404-.303 0-.525 0-.879.146-.482.197-.764.602-.764 1.021 0 .617.385.887 1.012.971.418.064 1.014.121 1.811.256 1.074.184 1.928.955 1.928 2.084-.001.649-.245 1.164-.613 1.532zm2.418-8.592v-1.492h1.477v1.492h-1.477zm.096 9.252v-7.537h1.295v7.537h-1.295zm6.098.101c-1.615 0-2.068-1.033-2.068-2.041v-4.506h-1.451v-1.092h1.451v-1.92l1.271-.293v2.213h2.229v1.092h-2.229v4.357c0 .736.309 1.029 1.004 1.029.543 0 1.303-.139 1.303-.139v1.09c-.352.091-.807.21-1.51.21zm9.066-3.451h-5.322c0 .684.262 1.434.721 1.887.344.342.807.531 1.381.531.604 0 1.09-.156 1.404-.492.205-.207.34-.412.445-.809h1.242c-.109.742-.564 1.439-1.17 1.854-.529.361-1.201.566-1.922.566-1.055 0-1.906-.447-2.486-1.125-.635-.736-.943-1.729-.943-2.807 0-.906.162-1.709.576-2.398.535-.912 1.537-1.584 2.846-1.584.963 0 1.74.379 2.285.967.609.67.969 1.637.963 2.648l-.02.762zm-1.748-2.623c-.309-.41-.811-.686-1.48-.686-1.373 0-2.041 1.121-2.072 2.217h4.02c-.001-.564-.163-1.129-.468-1.531zm3.365-4.412v2.355h-.451v-2.355h-.852v-.365h2.15v.365h-.847zm3.69 2.355v-2.268h-.014l-.891 2.268h-.281l-.889-2.268h-.014v2.268h-.455v-2.721h.697l.812 2.062.801-2.062h.687v2.721h-.453z"/><path fill="#fff" d="M325.041 10.722c-1.26 0-2.199-.984-2.199-2.232s.939-2.24 2.199-2.24c1.262 0 2.197.984 2.197 2.234 0 1.248-.936 2.238-2.197 2.238zm0-4.084c-1.076 0-1.791.785-1.791 1.852 0 1.064.715 1.844 1.791 1.844 1.078 0 1.789-.785 1.789-1.85 0-1.067-.711-1.846-1.789-1.846zm.492 2.977l-.387-.859h-.459v.859h-.406v-2.332h.857c.443 0 .828.256.828.73 0 .305-.135.549-.422.678l.436.924h-.447zm-.395-1.953h-.457v.718h.457c.242 0 .4-.111.4-.367.001-.236-.181-.351-.4-.351z"/></svg>