<svg xmlns="http://www.w3.org/2000/svg" width="16" height="16"><path fill="#fff" d="M13.333 4.692c-.393.174-.814.292-1.257.344.452-.271.799-.7.962-1.21-.423.251-.891.433-1.39.531-.398-.425-.968-.691-1.597-.691-1.209 0-2.188.98-2.188 2.188 0 .171.02.338.057.499-1.818-.092-3.432-.963-4.511-2.287-.188.323-.296.699-.296 1.101 0 .759.386 1.429.974 1.821-.359-.011-.696-.11-.991-.273l-.001.027c0 1.06.755 1.945 1.756 2.146-.184.05-.377.077-.576.077-.142 0-.278-.014-.412-.04.278.87 1.087 1.502 2.044 1.52-.749.587-1.692.937-2.718.937-.177 0-.351-.01-.521-.03.968.621 2.118.983 3.354.983 4.024 0 6.226-3.335 6.226-6.227l-.006-.283c.427-.309.798-.695 1.091-1.133z"/></svg>