<?xml version="1.0" encoding="utf-8"?>
<!-- Generator: Adobe Illustrator 16.0.0, SVG Export Plug-In . SVG Version: 6.00 Build 0)  -->
<!DOCTYPE svg PUBLIC "-//W3C//DTD SVG 1.1//EN" "http://www.w3.org/Graphics/SVG/1.1/DTD/svg11.dtd">
<svg version="1.1" id="Layer_1" xmlns="http://www.w3.org/2000/svg" xmlns:xlink="http://www.w3.org/1999/xlink" x="0px" y="0px"
	 width="16px" height="16px" viewBox="0 0 16 16" enable-background="new 0 0 16 16" xml:space="preserve">
<path fill="#FFFFFF" d="M13.333,4.692c-0.393,0.174-0.814,0.292-1.257,0.344c0.452-0.271,0.799-0.7,0.962-1.21
	c-0.423,0.251-0.891,0.433-1.39,0.531c-0.398-0.425-0.968-0.691-1.597-0.691c-1.209,0-2.188,0.98-2.188,2.188
	c0,0.171,0.02,0.338,0.057,0.499C6.102,6.261,4.488,5.39,3.409,4.066C3.221,4.389,3.113,4.765,3.113,5.167
	c0,0.759,0.386,1.429,0.974,1.821c-0.359-0.011-0.696-0.11-0.991-0.273C3.095,6.723,3.095,6.732,3.095,6.742
	c0,1.06,0.755,1.945,1.756,2.146c-0.184,0.05-0.377,0.077-0.576,0.077c-0.142,0-0.278-0.014-0.412-0.04
	c0.278,0.87,1.087,1.502,2.044,1.52c-0.749,0.587-1.692,0.937-2.718,0.937c-0.177,0-0.351-0.01-0.521-0.03
	c0.968,0.621,2.118,0.983,3.354,0.983c4.024,0,6.226-3.335,6.226-6.227c0-0.095-0.002-0.189-0.006-0.283
	C12.669,5.516,13.04,5.13,13.333,4.692z"/>
</svg>
